# xmcd
#
# Track frame offsets:
#	150
#	10387
#	22652
#	33425
#	48070
#	59292
#	69475
#	83290
#	98197
#	109915
#	123337
#	133500
#	145537
#	157262
#	167632
#	181740
#	190462
#	202787
#	213257
#	222977
#	231305
#	238092
#	248557
#	258052
#	271807
#	284667
#	295540
#	305630
#	317952
#
# Disc length: 4365 seconds
#
# Revision: 1
# Processed by: cddbd v1.4PL0 Copyright (c) Steve Scherf et al.
# Submitted via: audiograbber 1.80
#
DISCID=93110b1d
DTITLE=shirley and lee - thesweethearts of the blues disc 3
DYEAR=1900
DGENRE=
TTITLE0=let the good times roll 1960
TTITLE1=shirley come back to me 1960
TTITLE2=like you used to do 1960
TTITLE3=bewildered 1960
TTITLE4=who are we fooling 1960
TTITLE5=keep loving me 1960
TTITLE6=you moves me 1960
TTITLE7=let's live it up 1960
TTITLE8=e've been loved before 1960
TTITLE9=i'll never be free 1960
TTITLE10=after last night 1960
TTITLE11=i love the way you love 1960
TTITLE12=your love makes the difference 1960
TTITLE13=i was lucky 1960
TTITLE14=lover's mistake 1960
TTITLE15=everybody needs somebody 1960
TTITLE16=your daiy is coming 1960
TTITLE17=two peas in a pod 1960
TTITLE18=good for nothing baby 1960
TTITLE19=well-a, well-a 1960
TTITLE20=our kids 1960
TTITLE21=they've got to understand 1960
TTITLE22=call me a fool 1960
TTITLE23=hard to believe (take 7) 1960
TTITLE24=hard to believe (take 8) 1960
TTITLE25=behind the make-up 1960
TTITLE26=keep the magic working 1960
TTITLE27=girl you're married now 1960
TTITLE28=it's been so long 1960
EXTD=
EXTT0=
EXTT1=
EXTT2=
EXTT3=
EXTT4=
EXTT5=
EXTT6=
EXTT7=
EXTT8=
EXTT9=
EXTT10=
EXTT11=
EXTT12=
EXTT13=
EXTT14=
EXTT15=
EXTT16=
EXTT17=
EXTT18=
EXTT19=
EXTT20=
EXTT21=
EXTT22=
EXTT23=
EXTT24=
EXTT25=
EXTT26=
EXTT27=
EXTT28=
PLAYORDER=
